<svg xmlns:xlink="http://www.w3.org/1999/xlink" xmlns="http://www.w3.org/2000/svg" data-encore-id="icon" role="img" aria-hidden="true" class="e-9960-icon e-9960-baseline" viewBox="0 0 16 16" style="--encore-icon-height: var(--encore-graphic-size-decorative-smaller); --encore-icon-width: var(--encore-graphic-size-decorative-smaller);" width="16"  height="16" ><path d="M8 13a1 1 0 1 0 0-2 1 1 0 0 0 0 2" fill-opacity="0.7" fill="#FFFFFF"></path><path d="M4.75 0A1.75 1.75 0 0 0 3 1.75v12.5c0 .966.784 1.75 1.75 1.75h6.5A1.75 1.75 0 0 0 13 14.25V1.75A1.75 1.75 0 0 0 11.25 0zM4.5 1.75a.25.25 0 0 1 .25-.25h6.5a.25.25 0 0 1 .25.25v12.5a.25.25 0 0 1-.25.25h-6.5a.25.25 0 0 1-.25-.25z" fill-opacity="0.7" fill="#FFFFFF"></path></svg>